<svg width="98" height="44" viewBox="0 0 98 44" fill="none" xmlns="http://www.w3.org/2000/svg">
<path d="M53.1451 23.05C53.1451 22.1207 53.3491 21.3103 53.7571 20.619C54.1764 19.9163 54.7204 19.3667 55.3891 18.97C56.0577 18.5733 56.7831 18.375 57.5651 18.375C58.1317 18.375 58.6474 18.4487 59.1121 18.596C59.5881 18.7433 60.0187 18.953 60.4041 19.225C60.7894 19.4857 61.1181 19.7917 61.3901 20.143V18.239C60.8914 17.797 60.3474 17.4683 59.7581 17.253C59.1687 17.0377 58.4377 16.93 57.5651 16.93C56.7377 16.93 55.9614 17.083 55.2361 17.389C54.5221 17.6837 53.8931 18.1087 53.3491 18.664C52.8051 19.208 52.3801 19.854 52.0741 20.602C51.7681 21.35 51.6151 22.166 51.6151 23.05C51.6151 23.934 51.7681 24.75 52.0741 25.498C52.3801 26.246 52.8051 26.8977 53.3491 27.453C53.8931 27.997 54.5221 28.422 55.2361 28.728C55.9614 29.0227 56.7377 29.17 57.5651 29.17C58.4377 29.17 59.1687 29.0623 59.7581 28.847C60.3474 28.6317 60.8914 28.303 61.3901 27.861V25.957C61.1181 26.3083 60.7894 26.62 60.4041 26.892C60.0187 27.1527 59.5881 27.3567 59.1121 27.504C58.6474 27.6513 58.1317 27.725 57.5651 27.725C56.7831 27.725 56.0577 27.5267 55.3891 27.13C54.7204 26.7333 54.1764 26.1837 53.7571 25.481C53.3491 24.7783 53.1451 23.968 53.1451 23.05ZM63.1678 25.09C63.1678 25.872 63.3434 26.5747 63.6948 27.198C64.0574 27.81 64.5448 28.2917 65.1568 28.643C65.7688 28.9943 66.4544 29.17 67.2138 29.17C67.9844 29.17 68.6701 28.9943 69.2708 28.643C69.8828 28.2917 70.3644 27.81 70.7158 27.198C71.0784 26.5747 71.2598 25.872 71.2598 25.09C71.2598 24.2967 71.0784 23.594 70.7158 22.982C70.3644 22.37 69.8828 21.8883 69.2708 21.537C68.6701 21.1857 67.9844 21.01 67.2138 21.01C66.4544 21.01 65.7688 21.1857 65.1568 21.537C64.5448 21.8883 64.0574 22.37 63.6948 22.982C63.3434 23.594 63.1678 24.2967 63.1678 25.09ZM64.5448 25.09C64.5448 24.546 64.6581 24.0643 64.8848 23.645C65.1228 23.2143 65.4401 22.88 65.8368 22.642C66.2448 22.404 66.7038 22.285 67.2138 22.285C67.7238 22.285 68.1771 22.404 68.5738 22.642C68.9818 22.88 69.2991 23.2143 69.5258 23.645C69.7638 24.0643 69.8828 24.546 69.8828 25.09C69.8828 25.634 69.7638 26.1157 69.5258 26.535C69.2991 26.9543 68.9818 27.2887 68.5738 27.538C68.1771 27.776 67.7238 27.895 67.2138 27.895C66.7038 27.895 66.2448 27.776 65.8368 27.538C65.4401 27.2887 65.1228 26.9543 64.8848 26.535C64.6581 26.1157 64.5448 25.634 64.5448 25.09ZM78.143 24.24V29H79.503V24.07C79.503 23.1293 79.2594 22.387 78.772 21.843C78.296 21.2877 77.6444 21.01 76.817 21.01C76.307 21.01 75.8537 21.1233 75.457 21.35C75.0717 21.5767 74.7487 21.928 74.488 22.404V21.18H73.128V29H74.488V24.24C74.488 23.8547 74.5674 23.5147 74.726 23.22C74.896 22.9253 75.1284 22.6987 75.423 22.54C75.729 22.37 76.0804 22.285 76.477 22.285C77.021 22.285 77.4347 22.4493 77.718 22.778C78.0014 23.1067 78.143 23.594 78.143 24.24ZM81.4647 21.18V22.455H85.3747V21.18H81.4647ZM85.2387 17.372L85.9867 16.25C85.9073 16.1367 85.794 16.029 85.6467 15.927C85.5107 15.825 85.3463 15.74 85.1537 15.672C84.961 15.604 84.74 15.57 84.4907 15.57C84.0147 15.57 83.6067 15.672 83.2667 15.876C82.938 16.0687 82.683 16.3633 82.5017 16.76C82.3203 17.1567 82.2297 17.6667 82.2297 18.29V29H83.5897V18.46C83.5897 18.086 83.6237 17.7857 83.6917 17.559C83.7597 17.3323 83.8503 17.1737 83.9637 17.083C84.0883 16.981 84.2357 16.93 84.4057 16.93C84.5417 16.93 84.6833 16.9583 84.8307 17.015C84.9893 17.0603 85.1253 17.1793 85.2387 17.372ZM86.9239 17.95C86.9239 18.1993 87.0146 18.4203 87.1959 18.613C87.3886 18.7943 87.6096 18.885 87.8589 18.885C88.1196 18.885 88.3406 18.7943 88.5219 18.613C88.7033 18.4203 88.7939 18.1993 88.7939 17.95C88.7939 17.6893 88.7033 17.4683 88.5219 17.287C88.3406 17.1057 88.1196 17.015 87.8589 17.015C87.6096 17.015 87.3886 17.1057 87.1959 17.287C87.0146 17.4683 86.9239 17.6893 86.9239 17.95ZM87.1789 21.18V29H88.5389V21.18H87.1789Z" fill="white"/>
<path fill-rule="evenodd" clip-rule="evenodd" d="M21.6394 43.8488C33.5905 43.8488 43.2786 34.2187 43.2786 22.3394C43.2786 10.46 33.5905 0.82991 21.6394 0.82991C9.68829 0.82991 0 10.46 0 22.3394C0 34.2187 9.68829 43.8488 21.6394 43.8488Z" fill="#B72E2E"/>
<path d="M16.996 22.72C16.996 21.568 17.236 20.548 17.716 19.66C18.22 18.748 18.892 18.04 19.732 17.536C20.596 17.032 21.568 16.78 22.648 16.78C23.536 16.78 24.364 16.924 25.132 17.212C25.924 17.476 26.608 17.836 27.184 18.292C27.76 18.748 28.168 19.252 28.408 19.804V16.204C27.832 15.532 27.004 15.016 25.924 14.656C24.868 14.272 23.776 14.08 22.648 14.08C21.04 14.08 19.588 14.452 18.292 15.196C16.996 15.94 15.964 16.96 15.196 18.256C14.452 19.552 14.08 21.04 14.08 22.72C14.08 24.376 14.452 25.864 15.196 27.184C15.964 28.48 16.996 29.5 18.292 30.244C19.588 30.988 21.04 31.36 22.648 31.36C23.776 31.36 24.868 31.18 25.924 30.82C27.004 30.436 27.832 29.908 28.408 29.236V25.636C28.168 26.164 27.76 26.668 27.184 27.148C26.608 27.604 25.924 27.976 25.132 28.264C24.364 28.528 23.536 28.66 22.648 28.66C21.568 28.66 20.596 28.408 19.732 27.904C18.892 27.376 18.22 26.668 17.716 25.78C17.236 24.892 16.996 23.872 16.996 22.72Z" fill="white"/>
</svg>
